<?xml version="1.0" encoding="UTF-8" standalone="no"?>
<!-- Created with Inkscape (http://www.inkscape.org/) -->

<svg
   xmlns:dc="http://purl.org/dc/elements/1.1/"
   xmlns:cc="http://creativecommons.org/ns#"
   xmlns:rdf="http://www.w3.org/1999/02/22-rdf-syntax-ns#"
   xmlns:svg="http://www.w3.org/2000/svg"
   xmlns="http://www.w3.org/2000/svg"
   xmlns:sodipodi="http://sodipodi.sourceforge.net/DTD/sodipodi-0.dtd"
   xmlns:inkscape="http://www.inkscape.org/namespaces/inkscape"
   width="320"
   height="132"
   viewBox="0 0 84.666665 34.925001"
   version="1.1"
   id="svg8"
   inkscape:export-filename="/home/bigdoods/320x132.png"
   inkscape:export-xdpi="520"
   inkscape:export-ydpi="520"
   inkscape:version="0.92.4 (f8dce91, 2019-08-02)"
   sodipodi:docname="inkscape-bimlauncher-logo.svg">
  <defs
     id="defs2">
    <clipPath
       id="clipPath3779"
       clipPathUnits="userSpaceOnUse">
      <path
         inkscape:connector-curvature="0"
         id="path3777"
         d="M 233.711,863.916 H 1766 V 1137.01 H 233.711 Z" />
    </clipPath>
    <clipPath
       id="clipPath3787"
       clipPathUnits="userSpaceOnUse">
      <path
         inkscape:connector-curvature="0"
         id="path3785"
         d="M 0,2000 H 2000 V 0 H 0 Z" />
    </clipPath>
  </defs>
  <sodipodi:namedview
     id="base"
     pagecolor="#ffffff"
     bordercolor="#666666"
     borderopacity="1.0"
     inkscape:pageopacity="0.0"
     inkscape:pageshadow="2"
     inkscape:zoom="3.06"
     inkscape:cx="239.96393"
     inkscape:cy="68.348408"
     inkscape:document-units="px"
     inkscape:current-layer="layer1"
     showgrid="false"
     units="px"
     inkscape:pagecheckerboard="false"
     showguides="true"
     inkscape:window-width="3200"
     inkscape:window-height="1671"
     inkscape:window-x="0"
     inkscape:window-y="55"
     inkscape:window-maximized="1">
    <sodipodi:guide
       position="-41.416803,17.638889"
       orientation="0,793.70079"
       id="guide3901"
       inkscape:locked="false" />
    <sodipodi:guide
       position="210,0"
       orientation="-1122.5197,0"
       id="guide3903"
       inkscape:locked="false" />
    <sodipodi:guide
       position="210,297"
       orientation="0,-793.70079"
       id="guide3905"
       inkscape:locked="false" />
    <sodipodi:guide
       position="0,297"
       orientation="1122.5197,0"
       id="guide3907"
       inkscape:locked="false" />
  </sodipodi:namedview>
  <metadata
     id="metadata5">
    <rdf:RDF>
      <cc:Work
         rdf:about="">
        <dc:format>image/svg+xml</dc:format>
        <dc:type
           rdf:resource="http://purl.org/dc/dcmitype/StillImage" />
        <dc:title></dc:title>
      </cc:Work>
    </rdf:RDF>
  </metadata>
  <g
     inkscape:label="Layer 1"
     inkscape:groupmode="layer"
     id="layer1"
     transform="translate(0,-262.07499)">
    <g
       clip-path="url(#clipPath3779)"
       transform="matrix(0.05165022,0,0,-0.05165022,-9.4017439,331.12227)"
       inkscape:label="BIMLauncher Version 2"
       id="g3775">
      <g
         id="g3781">
        <g
           clip-path="url(#clipPath3787)"
           id="g3783">
          <g
             transform="translate(496,1096.7178)"
             id="g3789">
            <path
               inkscape:connector-curvature="0"
               id="path3791"
               style="fill:#093f5c;fill-opacity:1;fill-rule:nonzero;stroke:none"
               d="m 0,0 v -192.321 c 0,-0.377 -0.008,-0.753 -0.024,-1.129 -0.008,-0.337 -0.032,-0.665 -0.056,-0.993 0,-0.056 -0.008,-0.113 -0.016,-0.168 -0.024,-0.345 -0.056,-0.681 -0.096,-1.017 -0.008,-0.08 -0.016,-0.16 -0.024,-0.24 -0.016,-0.153 -0.04,-0.305 -0.064,-0.457 -0.008,-0.064 -0.016,-0.136 -0.024,-0.2 -0.008,-0.048 -0.016,-0.088 -0.024,-0.136 0,-0.024 0,-0.04 -0.008,-0.065 v -0.023 c -1.978,-12.986 -12.506,-23.267 -25.605,-24.852 h -0.024 c -1.153,-0.136 -2.329,-0.2 -3.514,-0.2 h -192.322 c -1.193,0 -2.378,0.064 -3.531,0.2 h -0.024 c -13.106,1.593 -23.643,11.881 -25.604,24.875 -0.224,1.434 -0.336,2.908 -0.336,4.405 V 0 c 0,1.489 0.112,2.962 0.336,4.387 1.857,12.338 11.441,22.234 23.627,24.572 h 0.008 c 1.793,0.344 3.635,0.52 5.516,0.52 h 192.322 c 1.889,0 3.738,-0.176 5.524,-0.52 12.186,-2.33 21.769,-12.234 23.627,-24.572 0.016,-0.064 0.024,-0.136 0.032,-0.2 0.024,-0.176 0.048,-0.352 0.072,-0.536 0.024,-0.176 0.048,-0.353 0.064,-0.537 0.024,-0.176 0.04,-0.352 0.048,-0.536 0.008,-0.008 0.008,-0.024 0,-0.04 0.016,-0.12 0.032,-0.24 0.032,-0.36 0.008,-0.032 0.008,-0.073 0.008,-0.105 0.008,-0.064 0.016,-0.136 0.016,-0.208 0.008,-0.064 0.016,-0.136 0.016,-0.2 0.008,-0.032 0.008,-0.064 0,-0.088 C -0.016,1.057 0,0.528 0,0" />
          </g>
          <g
             transform="translate(491.8149,907.5996)"
             id="g3793">
            <path
               inkscape:connector-curvature="0"
               id="path3795"
               style="fill:#093f5c;fill-opacity:1;fill-rule:nonzero;stroke:none"
               d="m 0,0 c 0,-0.364 -0.008,-0.728 -0.023,-1.092 -0.008,-0.325 -0.031,-0.642 -0.055,-0.96 0,-0.053 -0.007,-0.108 -0.015,-0.162 -0.023,-0.333 -0.054,-0.658 -0.093,-0.983 -0.008,-0.077 -0.016,-0.155 -0.023,-0.232 -0.016,-0.147 -0.039,-0.294 -0.062,-0.441 -0.008,-0.062 -0.016,-0.132 -0.023,-0.193 -0.008,-0.047 -0.016,-0.085 -0.023,-0.132 0,-0.024 0,-0.039 -0.008,-0.062 V -4.28 c -1.912,-12.554 -12.09,-22.491 -24.752,-24.025 H -25.1 c -1.114,-0.131 -2.253,-0.193 -3.398,-0.193 h -185.915 c -1.153,0 -2.299,0.062 -3.413,0.193 h -0.024 c -12.67,1.54 -22.855,11.487 -24.751,24.048 -0.217,1.385 -0.325,2.81 -0.325,4.257 v 185.915 c 0,1.439 0.108,2.864 0.325,4.241 1.796,11.927 11.06,21.493 22.84,23.753 h 0.008 c 1.733,0.333 3.513,0.504 5.332,0.504 h 185.916 c 1.826,0 3.614,-0.171 5.34,-0.504 11.78,-2.252 21.044,-11.826 22.84,-23.753 0.015,-0.062 0.023,-0.131 0.031,-0.193 0.031,-0.171 0.046,-0.341 0.069,-0.519 0.023,-0.17 0.047,-0.34 0.062,-0.518 0.023,-0.171 0.039,-0.341 0.047,-0.519 0.008,-0.008 0.008,-0.023 0,-0.039 0.015,-0.116 0.031,-0.232 0.031,-0.348 0.007,-0.031 0.007,-0.07 0.007,-0.101 0.008,-0.062 0.016,-0.131 0.016,-0.201 0.008,-0.062 0.015,-0.131 0.015,-0.193 0.008,-0.031 0.008,-0.062 0,-0.086 C -0.016,186.937 0,186.426 0,185.915 Z m 15.162,195.45 v 0.07 c -0.023,0.34 -0.039,0.681 -0.062,1.029 -0.008,0.163 -0.023,0.341 -0.039,0.503 -0.023,0.356 -0.061,0.72 -0.101,1.076 -0.046,0.341 -0.085,0.681 -0.131,1.022 -0.031,0.185 -0.054,0.364 -0.085,0.541 -0.039,0.256 -0.085,0.527 -0.132,0.774 -0.054,0.256 -0.1,0.512 -0.154,0.767 -0.109,0.511 -0.217,1.014 -0.349,1.517 -0.116,0.503 -0.248,0.99 -0.402,1.486 0.007,0.008 0,0.008 0,0.015 -0.085,0.248 -0.163,0.488 -0.24,0.728 -0.07,0.255 -0.155,0.495 -0.248,0.735 -0.085,0.24 -0.162,0.48 -0.255,0.727 -0.124,0.333 -0.248,0.651 -0.387,0.983 -0.132,0.326 -0.264,0.651 -0.41,0.976 -0.349,0.805 -0.744,1.602 -1.162,2.376 -0.154,0.294 -0.317,0.588 -0.487,0.882 -0.434,0.759 -0.898,1.517 -1.401,2.252 h 0.89 v 0.736 H 8.614 c -0.612,0.859 -1.261,1.687 -1.943,2.484 -0.781,0.906 -1.602,1.78 -2.468,2.593 -0.303,0.294 -0.597,0.572 -0.906,0.851 -0.395,0.348 -0.797,0.697 -1.208,1.03 -1.694,1.393 -3.521,2.624 -5.456,3.676 -0.178,0.093 -0.356,0.194 -0.542,0.286 -0.921,0.488 -1.873,0.937 -2.848,1.339 -0.247,0.101 -0.495,0.209 -0.751,0.31 -0.023,0.008 -0.046,0.015 -0.062,0.023 -0.487,0.178 -0.991,0.364 -1.486,0.534 -0.518,0.17 -1.052,0.341 -1.579,0.488 -0.526,0.147 -1.06,0.294 -1.602,0.418 -1.455,0.34 -2.925,0.588 -4.45,0.735 h -209.537 c -1.525,-0.147 -3.003,-0.395 -4.458,-0.735 -0.542,-0.124 -1.076,-0.271 -1.61,-0.418 -0.526,-0.147 -1.052,-0.318 -1.571,-0.488 -0.503,-0.17 -0.998,-0.34 -1.486,-0.534 -0.023,-0.008 -0.047,-0.015 -0.062,-0.023 -0.255,-0.101 -0.511,-0.209 -0.758,-0.31 -0.976,-0.402 -1.92,-0.851 -2.841,-1.339 -0.185,-0.092 -0.371,-0.193 -0.542,-0.286 -1.942,-1.052 -3.761,-2.283 -5.456,-3.676 -0.41,-0.333 -0.821,-0.682 -1.207,-1.03 -0.31,-0.279 -0.612,-0.557 -0.906,-0.851 -0.867,-0.813 -1.695,-1.687 -2.477,-2.593 -0.17,-0.201 -0.333,-0.402 -0.503,-0.604 -0.503,-0.611 -0.975,-1.238 -1.432,-1.88 -0.17,-0.248 -0.332,-0.488 -0.51,-0.736 -0.496,-0.735 -0.96,-1.486 -1.394,-2.252 -0.178,-0.294 -0.333,-0.588 -0.495,-0.882 -0.41,-0.774 -0.805,-1.571 -1.153,-2.376 -0.147,-0.325 -0.287,-0.65 -0.418,-0.976 -0.132,-0.332 -0.255,-0.65 -0.379,-0.983 -0.093,-0.247 -0.179,-0.487 -0.264,-0.727 -0.084,-0.24 -0.162,-0.48 -0.247,-0.735 -0.078,-0.24 -0.147,-0.48 -0.232,-0.728 v -0.015 c -0.147,-0.496 -0.287,-0.983 -0.411,-1.486 -0.131,-0.503 -0.239,-1.006 -0.348,-1.517 -0.046,-0.255 -0.1,-0.511 -0.147,-0.767 -0.054,-0.263 -0.093,-0.518 -0.132,-0.774 -0.038,-0.177 -0.061,-0.356 -0.085,-0.541 -0.054,-0.333 -0.092,-0.681 -0.131,-1.022 -0.047,-0.356 -0.078,-0.72 -0.101,-1.076 -0.015,-0.162 -0.031,-0.34 -0.046,-0.503 -0.023,-0.348 -0.039,-0.689 -0.055,-1.029 v -0.07 c -0.015,-0.433 -0.023,-0.874 -0.023,-1.316 V -8.228 c 0,-0.425 0.008,-0.859 0.023,-1.277 v -0.162 c 0.016,-0.325 0.032,-0.65 0.055,-0.976 0.015,-0.124 0.023,-0.254 0.031,-0.378 0.031,-0.403 0.069,-0.797 0.116,-1.201 0.007,-0.038 0.007,-0.085 0.015,-0.123 0.039,-0.372 0.093,-0.751 0.147,-1.115 0.062,-0.402 0.124,-0.789 0.201,-1.184 0.039,-0.232 0.086,-0.457 0.132,-0.681 0.054,-0.255 0.109,-0.503 0.171,-0.766 0.054,-0.248 0.115,-0.503 0.177,-0.751 0.117,-0.472 0.248,-0.929 0.38,-1.386 0.023,-0.092 0.046,-0.169 0.077,-0.254 0.062,-0.202 0.124,-0.403 0.186,-0.597 0.085,-0.247 0.163,-0.487 0.247,-0.728 0.085,-0.239 0.171,-0.479 0.264,-0.727 0.456,-1.223 0.967,-2.406 1.555,-3.56 0.117,-0.24 0.233,-0.472 0.356,-0.697 0.256,-0.487 0.534,-0.975 0.813,-1.447 0.132,-0.217 0.263,-0.433 0.395,-0.65 0.294,-0.48 0.603,-0.944 0.929,-1.417 0.247,-0.355 0.51,-0.712 0.766,-1.059 l 0.325,-0.426 c 0.263,-0.349 0.542,-0.689 0.82,-1.029 0.078,-0.094 0.163,-0.195 0.248,-0.287 0.194,-0.24 0.41,-0.48 0.627,-0.72 0.17,-0.194 0.34,-0.387 0.526,-0.572 0.232,-0.264 0.48,-0.519 0.735,-0.767 0.155,-0.17 0.318,-0.325 0.496,-0.487 0.224,-0.233 0.457,-0.45 0.688,-0.659 0.07,-0.061 0.132,-0.124 0.202,-0.177 0.387,-0.365 0.781,-0.704 1.192,-1.037 0.395,-0.333 0.805,-0.651 1.223,-0.968 0.456,-0.348 0.913,-0.681 1.385,-1.006 0.078,-0.055 0.147,-0.101 0.217,-0.147 0.271,-0.178 0.534,-0.356 0.797,-0.519 0.046,-0.03 0.077,-0.054 0.116,-0.069 0.356,-0.233 0.712,-0.442 1.06,-0.651 0.039,-0.023 0.085,-0.046 0.124,-0.077 0.333,-0.185 0.674,-0.379 1.014,-0.558 0.348,-0.185 0.712,-0.371 1.076,-0.556 0.279,-0.132 0.565,-0.272 0.859,-0.395 0.248,-0.116 0.495,-0.232 0.751,-0.341 0.464,-0.201 0.928,-0.394 1.4,-0.565 0.403,-0.154 0.798,-0.302 1.208,-0.434 0.248,-0.092 0.496,-0.169 0.751,-0.247 0.387,-0.131 0.789,-0.248 1.184,-0.356 0.046,-0.016 0.093,-0.024 0.147,-0.03 0.333,-0.102 0.666,-0.187 1.006,-0.256 0.89,-0.217 1.788,-0.403 2.702,-0.542 0.216,-0.039 0.44,-0.077 0.665,-0.101 0.255,-0.038 0.526,-0.077 0.789,-0.1 0.403,-0.046 0.798,-0.093 1.2,-0.117 0.333,-0.03 0.666,-0.053 1.006,-0.069 0.209,-0.016 0.426,-0.023 0.643,-0.031 0.41,-0.016 0.828,-0.024 1.246,-0.024 h 202.369 c 0.411,0 0.829,0.008 1.239,0.024 0.217,0.008 0.433,0.015 0.642,0.031 0.341,0.016 0.674,0.039 1.006,0.069 0.395,0.024 0.798,0.071 1.192,0.117 0.271,0.023 0.534,0.062 0.797,0.1 0.225,0.024 0.449,0.062 0.666,0.101 0.914,0.139 1.811,0.317 2.701,0.542 0.341,0.069 0.674,0.154 1.007,0.256 0.046,0.006 0.1,0.014 0.139,0.03 0.402,0.108 0.797,0.225 1.192,0.356 0.247,0.078 0.495,0.155 0.751,0.247 0.402,0.132 0.804,0.28 1.207,0.434 0.472,0.171 0.936,0.364 1.393,0.565 0.256,0.109 0.511,0.225 0.758,0.341 0.279,0.123 0.573,0.263 0.859,0.395 0.364,0.185 0.721,0.371 1.069,0.556 0.34,0.187 0.681,0.373 1.013,0.558 0.047,0.031 0.086,0.054 0.132,0.077 0.348,0.209 0.704,0.418 1.053,0.651 0.031,0.015 0.077,0.039 0.116,0.069 0.271,0.163 0.534,0.341 0.797,0.519 0.542,0.372 1.084,0.75 1.61,1.153 0.418,0.317 0.82,0.635 1.223,0.968 0.402,0.333 0.805,0.672 1.184,1.037 0.069,0.053 0.139,0.116 0.201,0.177 0.232,0.209 0.465,0.426 0.697,0.659 0.17,0.162 0.34,0.317 0.495,0.487 0.248,0.248 0.495,0.503 0.736,0.767 0.177,0.185 0.355,0.378 0.518,0.572 0.216,0.24 0.433,0.48 0.634,0.72 0.086,0.092 0.155,0.186 0.241,0.287 0.286,0.34 0.557,0.68 0.828,1.029 l 0.324,0.426 c 0.256,0.347 0.512,0.704 0.759,1.059 0.325,0.473 0.635,0.937 0.937,1.417 0.131,0.217 0.255,0.433 0.386,0.65 0.287,0.472 0.558,0.96 0.821,1.447 0.124,0.225 0.24,0.457 0.356,0.697 0.581,1.161 1.107,2.337 1.556,3.56 0.093,0.248 0.17,0.488 0.255,0.727 0.093,0.241 0.178,0.481 0.248,0.728 0.07,0.194 0.132,0.395 0.186,0.597 0.031,0.085 0.061,0.17 0.085,0.254 0.131,0.457 0.255,0.914 0.371,1.386 0.07,0.248 0.124,0.503 0.186,0.751 0.054,0.263 0.116,0.511 0.163,0.766 0.054,0.224 0.092,0.449 0.139,0.681 0.07,0.395 0.139,0.782 0.194,1.184 0.061,0.364 0.108,0.743 0.154,1.115 0.008,0.038 0.008,0.085 0.015,0.123 0.04,0.404 0.086,0.798 0.117,1.201 0.007,0.124 0.015,0.254 0.023,0.378 0.023,0.326 0.039,0.651 0.062,0.976 v 0.162 c 0.015,0.418 0.023,0.852 0.023,1.277 v 202.362 c 0,0.442 -0.008,0.883 -0.023,1.316" />
          </g>
          <g
             transform="translate(357.5317,1053.9551)"
             id="g3797">
            <path
               inkscape:connector-curvature="0"
               id="path3799"
               style="fill:#f28e00;fill-opacity:1;fill-rule:nonzero;stroke:none"
               d="m 0,0 84.998,-44.802 2.311,4.385 L 2.311,4.384 Z" />
          </g>
          <g
             transform="translate(358.9214,1061.9067)"
             id="g3801">
            <path
               inkscape:connector-curvature="0"
               id="path3803"
               style="fill:#f28e00;fill-opacity:1;fill-rule:nonzero;stroke:none"
               d="m 0,0 -41.176,-78.119 4.385,-2.311 41.176,78.118 z" />
          </g>
          <g
             transform="translate(344.9287,961.6289)"
             id="g3805">
            <path
               inkscape:connector-curvature="0"
               id="path3807"
               style="fill:#f28e00;fill-opacity:1;fill-rule:nonzero;stroke:none"
               d="M 0,0 C 0.092,-19.987 -16.036,-36.264 -36.022,-36.356 -56.009,-36.448 -72.286,-20.32 -72.378,-0.334 -72.47,19.653 -56.343,35.93 -36.356,36.022 -16.369,36.114 -0.092,19.986 0,0" />
          </g>
          <g
             transform="translate(461.6729,1012.2471)"
             id="g3809">
            <path
               inkscape:connector-curvature="0"
               id="path3811"
               style="fill:#f28e00;fill-opacity:1;fill-rule:nonzero;stroke:none"
               d="m 0,0 c 0.049,-10.7 -8.585,-19.414 -19.285,-19.463 -10.7,-0.05 -19.414,8.585 -19.463,19.285 -0.049,10.699 8.585,19.413 19.285,19.463 C -8.763,19.334 -0.049,10.7 0,0" />
          </g>
          <g
             transform="translate(385.3569,1055.6772)"
             id="g3813">
            <path
               inkscape:connector-curvature="0"
               id="path3815"
               style="fill:#108ac5;fill-opacity:1;fill-rule:nonzero;stroke:none"
               d="m 0,0 c 0,-14.132 -11.457,-25.588 -25.588,-25.588 -14.133,0 -25.589,11.456 -25.589,25.588 0,14.132 11.456,25.589 25.589,25.589 C -11.457,25.589 0,14.132 0,0" />
          </g>
          <g
             transform="translate(1766,1018)"
             id="g3817">
            <path
               inkscape:connector-curvature="0"
               id="path3819"
               style="fill:#093f5c;fill-opacity:1;fill-rule:nonzero;stroke:none"
               d="m 0,0 c -6.281,0.061 -12.656,0.828 -18.823,0.019 -9.513,-1.249 -16.063,-7.6 -21.289,-15.195 -1.002,-1.456 -1.006,-3.784 -1.011,-5.712 -0.062,-25.315 -0.041,-50.632 -0.041,-75.948 v -5.792 H -62.893 V 18.605 h 21.665 V 2.809 C -30.163,17.603 -17.48,25.222 0,21 Z" />
          </g>
          <g
             transform="translate(755.6753,911.7822)"
             id="g3821">
            <path
               inkscape:connector-curvature="0"
               id="path3823"
               style="fill:#108ac5;fill-opacity:1;fill-rule:nonzero;stroke:none"
               d="m 0,0 h -28.217 v 174.724 c 7.7,0 15.321,0.08 22.938,-0.027 5.441,-0.076 12.209,1.475 15.932,-1.163 3.518,-2.492 3.903,-9.482 5.549,-14.532 12.468,-38.258 24.907,-76.524 37.741,-115.974 1.016,2.651 1.745,4.328 2.31,6.06 13.164,40.318 26.357,80.626 39.38,120.99 1.179,3.655 2.86,4.838 6.683,4.744 11.283,-0.275 22.578,-0.098 34.187,-0.098 V 0.088 H 108.665 V 120.85 c -0.368,0.074 -0.735,0.149 -1.102,0.222 -1.112,-3.197 -2.255,-6.385 -3.333,-9.595 C 92.275,75.849 80.275,40.236 68.469,4.56 c -1.18,-3.567 -2.64,-5.199 -6.574,-4.933 -5.143,0.347 -10.339,0.299 -15.489,0.012 -3.576,-0.2 -5.174,1.007 -6.332,4.5 C 27.615,41.702 14.958,79.2 2.352,116.714 1.948,117.917 1.497,119.103 0,120.175 Z" />
          </g>
          <g
             transform="translate(565.8203,1060.1265)"
             id="g3825">
            <path
               inkscape:connector-curvature="0"
               id="path3827"
               style="fill:#108ac5;fill-opacity:1;fill-rule:nonzero;stroke:none"
               d="m 0,0 v -43.222 c 1.058,-0.151 1.846,-0.36 2.634,-0.361 11.478,-0.02 22.973,-0.374 34.43,0.137 6.049,0.27 12.154,1.622 18.006,3.287 5.666,1.612 8.944,5.977 10.245,11.822 3.203,14.38 -2.764,24.473 -17.475,26.098 C 32.217,-0.513 16.385,-0.684 0,0 m -0.043,-121.236 c 1.153,-0.152 1.945,-0.348 2.738,-0.349 12.318,-0.023 24.654,-0.414 36.948,0.136 6.55,0.293 13.189,1.68 19.491,3.566 6.326,1.892 10.792,6.56 12.838,13.008 5.399,17.008 -2.455,30.74 -20.143,32.629 -15.487,1.656 -31.203,1.171 -46.818,1.592 -1.602,0.044 -3.21,-0.184 -5.054,-0.303 z M -29.415,25.896 c 1.005,0.18 1.804,0.452 2.6,0.447 23.978,-0.142 47.965,0.057 71.927,-0.634 11.765,-0.338 22.909,-4.027 32.655,-11.051 22.169,-15.977 23.422,-48.574 2.562,-66.225 -1.134,-0.959 -2.281,-1.904 -3.723,-3.105 0.524,-0.355 0.88,-0.669 1.293,-0.865 16.159,-7.654 24.379,-20.717 25.205,-38.278 0.934,-19.83 -6.045,-35.885 -24.022,-45.924 -11.951,-6.675 -25.115,-8.671 -38.527,-8.821 -22.149,-0.248 -44.304,-0.074 -66.456,-0.049 -1.125,0.001 -2.249,0.281 -3.514,0.45 z" />
          </g>
          <g
             transform="translate(1669.9668,988.1582)"
             id="g3829">
            <path
               inkscape:connector-curvature="0"
               id="path3831"
               style="fill:#093f5c;fill-opacity:1;fill-rule:nonzero;stroke:none"
               d="M 0,0 C -0.996,21.175 -16.68,35.956 -36.339,34.662 -53.275,33.547 -68.356,16.399 -66.667,0 Z m 24.03,-17.133 h -91.363 c -1.967,-13.702 6.617,-30.805 18.565,-37.468 12.478,-6.958 29.869,-5.912 40.323,3.391 3.718,3.309 5.705,8.564 9.194,14.052 H 9.941 21.195 C 19.73,-48.537 15.051,-57.546 6.433,-64.462 c -28.568,-22.924 -76.518,-12.448 -91.131,20.159 -7.109,15.863 -7.515,32.605 -4.585,49.5 2.257,13.015 7.701,24.492 17.815,33.224 17.625,15.215 38.064,16.876 59.151,9.994 C 7.8,41.85 18.272,26.234 21.937,5.98 23.283,-1.457 23.345,-9.128 24.03,-17.133" />
          </g>
          <g
             transform="translate(1100.9883,973.8281)"
             id="g3833">
            <path
               inkscape:connector-curvature="0"
               id="path3835"
               style="fill:#093f5c;fill-opacity:1;fill-rule:nonzero;stroke:none"
               d="m 0,0 c -7.562,0 -14.374,0.103 -21.181,-0.042 -3.482,-0.074 -7.103,-0.07 -10.401,-1.014 -7.118,-2.036 -14.533,-3.799 -20.964,-7.273 -7.303,-3.944 -9.908,-11.346 -8.933,-19.658 1.006,-8.589 6.637,-13.008 14.377,-15.321 15.181,-4.537 36.216,2.171 45.512,14.541 0.757,1.006 1.502,2.339 1.521,3.532 C 0.062,-16.954 0,-8.671 0,0 m -59.024,28.32 h -20.711 c -1.765,11.127 5.411,24.956 17.229,30.599 6.912,3.301 14.678,5.391 22.284,6.527 11.719,1.75 23.578,1.348 35.122,-2.046 16.371,-4.814 24.107,-13.983 26.067,-30.876 0.306,-2.645 0.746,-5.299 0.751,-7.951 0.054,-27.309 0.034,-54.62 0.017,-81.929 0,-0.295 -0.231,-0.59 -0.476,-1.175 H 0.131 v 11.685 c -8.281,-6.769 -16.605,-11.351 -26.187,-13.346 -10.736,-2.236 -21.469,-2.701 -32.099,0.409 -14.316,4.186 -24.453,15.602 -25.773,28.725 -1.651,16.422 5.018,29.562 18.996,37.091 14.635,7.883 30.663,9.537 46.882,10.106 5.797,0.204 11.608,0.033 18.648,0.033 -0.911,7.257 -1.227,14.2 -2.791,20.848 -1.261,5.358 -5.94,8.455 -11.059,9.928 -10.624,3.057 -21.378,3.125 -31.951,-0.322 -8.693,-2.834 -12.964,-9.36 -13.821,-18.306" />
          </g>
          <g
             transform="translate(1570.8643,915.2139)"
             id="g3837">
            <path
               inkscape:connector-curvature="0"
               id="path3839"
               style="fill:#093f5c;fill-opacity:1;fill-rule:nonzero;stroke:none"
               d="m 0,0 h -21.37 c 0,2.172 0.007,4.134 -0.002,6.096 -0.109,25.644 0.064,51.294 -0.423,76.93 -0.376,19.779 -14.073,28.607 -32.731,21.646 -8.66,-3.231 -15.373,-9.208 -21.174,-16.176 -1.093,-1.314 -1.27,-3.682 -1.276,-5.564 C -77.054,57.281 -77.028,31.631 -77.028,5.98 V 0.17 h -21.718 v 167.372 h 21.651 V 107.26 c 2.282,2.142 3.666,3.468 5.078,4.764 14.55,13.358 31.423,16.266 49.625,9.775 C -5.514,115.78 -0.188,101.431 0.127,85.229 0.666,57.59 0.285,29.934 0.277,2.285 0.277,1.646 0.127,1.008 0,0" />
          </g>
          <g
             transform="translate(1255.2041,1036.7144)"
             id="g3841">
            <path
               inkscape:connector-curvature="0"
               id="path3843"
               style="fill:#093f5c;fill-opacity:1;fill-rule:nonzero;stroke:none"
               d="m 0,0 h 21.574 v -14.347 c 2.217,2.13 3.555,3.457 4.936,4.736 C 41,3.816 57.847,6.737 76.092,0.378 92.324,-5.28 98.133,-18.868 98.646,-34.583 c 0.72,-21.959 0.272,-43.959 0.315,-65.941 0.014,-6.818 0.002,-13.637 0.002,-20.822 H 77.29 c 0,1.86 0.007,3.798 -0.002,5.734 -0.108,25.642 -0.218,51.284 -0.336,76.926 -0.004,0.997 -0.075,1.996 -0.156,2.991 -1.253,15.503 -11.313,23.214 -26.677,20.459 -11.674,-2.094 -20.004,-9.368 -27.319,-18 -1.085,-1.281 -1.117,-3.712 -1.122,-5.612 -0.069,-25.649 -0.046,-51.296 -0.046,-76.944 v -5.641 H 0 Z" />
          </g>
          <g
             transform="translate(1138.1641,1036.7554)"
             id="g3845">
            <path
               inkscape:connector-curvature="0"
               id="path3847"
               style="fill:#093f5c;fill-opacity:1;fill-rule:nonzero;stroke:none"
               d="m 0,0 h 22.003 v -5.582 c 0,-24.151 -0.037,-48.304 0.04,-72.456 0.012,-3.645 0.337,-7.324 0.894,-10.928 2.006,-12.952 10.809,-19.179 24.964,-17.525 12.612,1.475 21.624,8.891 29.014,18.562 0.949,1.242 0.882,3.442 0.886,5.199 0.052,25.651 0.035,51.303 0.035,76.954 v 5.712 H 99.303 V -121.45 H 78.071 v 14.3 c -3.121,-2.749 -5.467,-4.935 -7.937,-6.972 -14.314,-11.803 -30.446,-13.63 -47.412,-7.55 C 8.1,-116.431 1.731,-104.249 1.016,-89.799 -0.064,-68.034 0.242,-46.198 0.014,-24.392 -0.07,-16.423 0,-8.452 0,0" />
          </g>
          <g
             transform="translate(1468.4229,1001.1704)"
             id="g3849">
            <path
               inkscape:connector-curvature="0"
               id="path3851"
               style="fill:#093f5c;fill-opacity:1;fill-rule:nonzero;stroke:none"
               d="m 0,0 h -21.891 c -3.629,13.976 -10.135,19.972 -23.276,21.569 -13.238,1.609 -26.335,-4.395 -32.087,-16.562 -9.387,-19.855 -9.498,-40.45 -0.022,-60.262 6.818,-14.256 23.213,-20.078 38.342,-15.248 9.807,3.129 15.815,9.481 16.638,20.154 H -0.13 c -1.146,-11.199 -5.396,-20.569 -14.034,-27.656 -31.737,-26.037 -81.41,-8.22 -90.051,32.493 -3.726,17.557 -3.495,35.214 3.612,52.027 8.889,21.025 25.479,31.228 47.973,32.3 13.494,0.644 26.215,-1.748 37.251,-10.153 C -6.084,21.583 -1.573,11.902 0,0" />
          </g>
          <g
             transform="translate(1015.7734,935.1113)"
             id="g3853">
            <path
               inkscape:connector-curvature="0"
               id="path3855"
               style="fill:#093f5c;fill-opacity:1;fill-rule:nonzero;stroke:none"
               d="m 0,0 v -19.851 h -103.648 v 167.476 h 21.987 V 0 Z" />
          </g>
          <path
             inkscape:connector-curvature="0"
             id="path3857"
             style="fill:#108ac5;fill-opacity:1;fill-rule:nonzero;stroke:none"
             d="m 680.176,1086.203 h 28.903 V 911.832 h -28.903 z" />
        </g>
      </g>
    </g>
  </g>
</svg>
